<?xml version="1.0" encoding="utf-8"?>
<svg version="1.1" xmlns:xlink="http://www.w3.org/1999/xlink" width="13px" height="15px" xmlns="http://www.w3.org/2000/svg">
  <g transform="matrix(1 0 0 1 -332 -266 )">
    <path d="M 13 2.8125  C 13 1.25892857142857  11.7530612244898 0  10.2142857142857 0  C 8.67551020408163 0  7.42857142857143 1.25892857142857  7.42857142857143 2.8125  C 7.42857142857143 3.19252232142857  7.50484693877551 3.55412946428571  7.64081632653061 3.88392857142857  L 4.86007653061225 5.63839285714286  C 4.34936224489796 5.05915178571429  3.61313775510204 4.6875  2.78571428571429 4.6875  C 1.2469387755102 4.6875  0 5.94642857142857  0 7.5  C 0 9.05357142857143  1.2469387755102 10.3125  2.78571428571429 10.3125  C 3.61313775510204 10.3125  4.34936224489796 9.94084821428571  4.86007653061225 9.36160714285714  L 7.64081632653061 11.1160714285714  C 7.50484693877551 11.4458705357143  7.42857142857143 11.8074776785714  7.42857142857143 12.1875  C 7.42857142857143 13.7410714285714  8.67551020408163 15  10.2142857142857 15  C 11.7530612244898 15  13 13.7410714285714  13 12.1875  C 13 10.6339285714286  11.7530612244898 9.375  10.2142857142857 9.375  C 9.38686224489796 9.375  8.65063775510204 9.74665178571429  8.13992346938775 10.3258928571429  L 5.35918367346939 8.57142857142857  C 5.49515306122449 8.24162946428571  5.57142857142857 7.88002232142857  5.57142857142857 7.5  C 5.57142857142857 7.11997767857143  5.49515306122449 6.75837053571429  5.35918367346939 6.42857142857143  L 8.13992346938775 4.67410714285714  C 8.65063775510204 5.25334821428571  9.38686224489796 5.625  10.2142857142857 5.625  C 11.7530612244898 5.625  13 4.36607142857143  13 2.8125  Z M 12.0714285714286 2.8125  C 12.0714285714286 3.84709821428571  11.2390306122449 4.6875  10.2142857142857 4.6875  C 9.18954081632653 4.6875  8.35714285714286 3.84709821428571  8.35714285714286 2.8125  C 8.35714285714286 1.77790178571429  9.18954081632653 0.9375  10.2142857142857 0.9375  C 11.2390306122449 0.9375  12.0714285714286 1.77790178571429  12.0714285714286 2.8125  Z M 4.64285714285714 7.5  C 4.64285714285714 8.53459821428571  3.81045918367347 9.375  2.78571428571429 9.375  C 1.7609693877551 9.375  0.928571428571428 8.53459821428571  0.928571428571428 7.5  C 0.928571428571428 6.46540178571429  1.7609693877551 5.625  2.78571428571429 5.625  C 3.81045918367347 5.625  4.64285714285714 6.46540178571429  4.64285714285714 7.5  Z M 12.0714285714286 12.1875  C 12.0714285714286 13.2220982142857  11.2390306122449 14.0625  10.2142857142857 14.0625  C 9.18954081632653 14.0625  8.35714285714286 13.2220982142857  8.35714285714286 12.1875  C 8.35714285714286 11.1529017857143  9.18954081632653 10.3125  10.2142857142857 10.3125  C 11.2390306122449 10.3125  12.0714285714286 11.1529017857143  12.0714285714286 12.1875  Z " fill-rule="nonzero" fill="#ffffff" stroke="none" transform="matrix(1 0 0 1 332 266 )" />
  </g>
</svg>