<?xml version="1.0" encoding="utf-8"?>
<svg version="1.1" xmlns:xlink="http://www.w3.org/1999/xlink" width="15px" height="17px" xmlns="http://www.w3.org/2000/svg">
  <g transform="matrix(1 0 0 1 -127 -635 )">
    <path d="M 2.314453125 14.1905048076923  C 2.43815104166667 14.0610977564103  2.5 13.9078525641026  2.5 13.7307692307692  C 2.5 13.5536858974359  2.43815104166667 13.4004407051282  2.314453125 13.2710336538462  C 2.19075520833333 13.1416266025641  2.04427083333333 13.0769230769231  1.875 13.0769230769231  C 1.70572916666667 13.0769230769231  1.55924479166667 13.1416266025641  1.435546875 13.2710336538462  C 1.31184895833333 13.4004407051282  1.25 13.5536858974359  1.25 13.7307692307692  C 1.25 13.9078525641026  1.31184895833333 14.0610977564103  1.435546875 14.1905048076923  C 1.55924479166667 14.3199118589744  1.70572916666667 14.3846153846154  1.875 14.3846153846154  C 2.04427083333333 14.3846153846154  2.19075520833333 14.3199118589744  2.314453125 14.1905048076923  Z M 13.5400390625 8.67367788461539  C 13.6800130208333 8.3603766025641  13.75 8.08453525641026  13.75 7.84615384615385  C 13.75 7.49879807692308  13.623046875 7.19401041666667  13.369140625 6.93179086538462  C 13.115234375 6.66957131410256  12.8255208333333 6.53846153846154  12.5 6.53846153846154  L 9.0625 6.53846153846154  C 9.0625 6.14342948717949  9.21875 5.60026041666667  9.53125 4.90895432692308  C 9.84375 4.21764823717949  10 3.67107371794872  10 3.26923076923077  C 10 2.60176282051282  9.89583333333333 2.10797275641026  9.6875 1.78786057692308  C 9.47916666666667 1.4677483974359  9.0625 1.30769230769231  8.4375 1.30769230769231  C 8.26822916666667 1.48477564102564  8.14453125 1.77423878205128  8.06640625 2.17608173076923  C 7.98828125 2.57792467948718  7.88899739583333 3.00530849358974  7.7685546875 3.45823317307692  C 7.64811197916667 3.9111578525641  7.45442708333333 4.28405448717949  7.1875 4.57692307692308  C 7.04427083333333 4.73357371794872  6.79361979166667 5.04346955128205  6.435546875 5.50661057692308  C 6.40950520833333 5.54066506410256  6.33463541666667 5.64282852564102  6.2109375 5.81310096153846  C 6.08723958333333 5.9833733974359  5.98470052083333 6.12299679487179  5.9033203125 6.23197115384615  C 5.82194010416667 6.34094551282051  5.70963541666667 6.48567708333333  5.56640625 6.66616586538462  C 5.42317708333333 6.8466546474359  5.29296875 6.99649439102564  5.17578125 7.11568509615385  C 5.05859375 7.23487580128205  4.93326822916667 7.35576923076923  4.7998046875 7.47836538461538  C 4.66634114583333 7.60096153846154  4.5361328125 7.69290865384615  4.4091796875 7.75420673076923  C 4.2822265625 7.81550480769231  4.16666666666667 7.84615384615385  4.0625 7.84615384615385  L 3.75 7.84615384615385  L 3.75 14.3846153846154  L 4.0625 14.3846153846154  C 4.14713541666667 14.3846153846154  4.24967447916667 14.3948317307692  4.3701171875 14.4152644230769  C 4.49055989583333 14.4356971153846  4.59798177083333 14.4578325320513  4.6923828125 14.4816706730769  C 4.78678385416667 14.5055088141026  4.91048177083333 14.54296875  5.0634765625 14.5940504807692  C 5.21647135416667 14.6451322115385  5.33040364583333 14.6842948717949  5.4052734375 14.7115384615385  C 5.48014322916667 14.7387820512821  5.595703125 14.7813501602564  5.751953125 14.8392427884615  C 5.908203125 14.8971354166667  6.00260416666667 14.9328926282051  6.03515625 14.9465144230769  C 7.40885416666667 15.4437099358974  8.52213541666667 15.6923076923077  9.375 15.6923076923077  L 10.556640625 15.6923076923077  C 11.806640625 15.6923076923077  12.431640625 15.1235977564103  12.431640625 13.9861778846154  C 12.431640625 13.8090945512821  12.4153645833333 13.6183894230769  12.3828125 13.4140625  C 12.578125 13.3050881410256  12.7327473958333 13.1263020833333  12.8466796875 12.8777043269231  C 12.9606119791667 12.6291065705128  13.017578125 12.3788060897436  13.017578125 12.1268028846154  C 13.017578125 11.8747996794872  12.958984375 11.6398237179487  12.841796875 11.421875  C 13.1868489583333 11.0813301282051  13.359375 10.6760817307692  13.359375 10.2061298076923  C 13.359375 10.0358573717949  13.3268229166667 9.84685496794872  13.26171875 9.63912259615385  C 13.1966145833333 9.43139022435897  13.115234375 9.26963141025641  13.017578125 9.15384615384615  C 13.2259114583333 9.14703525641026  13.4000651041667 8.98697916666667  13.5400390625 8.67367788461539  Z M 14.2578125 6.00721153846154  C 14.7526041666667 6.52483974358974  15 7.13441506410256  15 7.8359375  C 15 8.44210737179487  14.8404947916667 8.99719551282051  14.521484375 9.50120192307692  C 14.580078125 9.72596153846154  14.609375 9.9609375  14.609375 10.2061298076923  C 14.609375 10.7305689102564  14.4856770833333 11.220953525641  14.23828125 11.6772836538462  C 14.2578125 11.8203125  14.267578125 11.9667467948718  14.267578125 12.1165865384615  C 14.267578125 12.8044871794872  14.072265625 13.410657051282  13.681640625 13.9350961538462  C 13.6881510416667 14.8818108974359  13.4114583333333 15.6293068910256  12.8515625 16.1775841346154  C 12.2916666666667 16.7258613782051  11.552734375 17  10.634765625 17  L 10.283203125 17  L 9.375 17  C 8.75 17  8.13313802083333 16.9233774038462  7.5244140625 16.7701322115385  C 6.91569010416667 16.6168870192308  6.2109375 16.3938301282051  5.41015625 16.1009615384615  C 4.65494791666667 15.8285256410256  4.20572916666667 15.6923076923077  4.0625 15.6923076923077  L 1.25 15.6923076923077  C 0.904947916666667 15.6923076923077  0.6103515625 15.5646033653846  0.3662109375 15.3091947115385  C 0.1220703125 15.0537860576923  0 14.7455929487179  0 14.3846153846154  L 0 7.84615384615385  C 0 7.48517628205128  0.1220703125 7.17698317307692  0.3662109375 6.92157451923077  C 0.6103515625 6.66616586538462  0.904947916666667 6.53846153846154  1.25 6.53846153846154  L 3.92578125 6.53846153846154  C 4.16015625 6.375  4.60611979166667 5.84715544871795  5.263671875 4.95492788461538  C 5.64127604166667 4.44411057692308  5.98958333333333 4.00821314102564  6.30859375 3.64723557692308  C 6.46484375 3.47696314102564  6.58040364583333 3.18579727564102  6.6552734375 2.77373798076923  C 6.73014322916667 2.36167868589743  6.82942708333333 1.93088942307692  6.953125 1.48137019230769  C 7.07682291666667 1.03185096153846  7.27864583333333 0.6640625  7.55859375 0.378004807692307  C 7.8125 0.126001602564104  8.10546875 0  8.4375 0  C 8.984375 0  9.47591145833334 0.110677083333335  9.912109375 0.33203125  C 10.3483072916667 0.553385416666665  10.6803385416667 0.899038461538462  10.908203125 1.36899038461538  C 11.1360677083333 1.83894230769231  11.25 2.47235576923077  11.25 3.26923076923077  C 11.25 3.90264423076923  11.09375 4.55649038461538  10.78125 5.23076923076923  L 12.5 5.23076923076923  C 13.1770833333333 5.23076923076923  13.7630208333333 5.48958333333333  14.2578125 6.00721153846154  Z " fill-rule="nonzero" fill="#92d5e3" stroke="none" transform="matrix(1 0 0 1 127 635 )" />
  </g>
</svg>