<?xml version="1.0" encoding="utf-8"?>
<svg version="1.1" xmlns:xlink="http://www.w3.org/1999/xlink" width="7px" height="10px" xmlns="http://www.w3.org/2000/svg">
  <g transform="matrix(1 0 0 1 -72 -29 )">
    <path d="M 7 5  C 7 5.10752688172043  6.95720720720721 5.20057899090157  6.87162162162162 5.27915632754342  L 1.85810810810811 9.88213399503722  C 1.77252252252252 9.96071133167907  1.67117117117117 10  1.55405405405405 10  C 1.43693693693694 10  1.33558558558559 9.96071133167907  1.25 9.88213399503722  L 0.128378378378378 8.85235732009926  C 0.0427927927927929 8.7737799834574  0 8.68072787427626  0 8.57320099255583  C 0 8.4656741108354  0.0427927927927929 8.37262200165426  0.128378378378378 8.29404466501241  L 3.71621621621622 5  L 0.128378378378378 1.70595533498759  C 0.0427927927927929 1.62737799834574  0 1.5343258891646  0 1.42679900744417  C 0 1.31927212572374  0.0427927927927929 1.2262200165426  0.128378378378378 1.14764267990074  L 1.25 0.117866004962779  C 1.33558558558559 0.0392886683209259  1.43693693693694 0  1.55405405405405 0  C 1.67117117117117 0  1.77252252252252 0.0392886683209259  1.85810810810811 0.117866004962779  L 6.87162162162162 4.72084367245658  C 6.95720720720721 4.79942100909843  7 4.89247311827957  7 5  Z " fill-rule="nonzero" fill="#ffffff" stroke="none" transform="matrix(1 0 0 1 72 29 )" />
  </g>
</svg>