<?xml version="1.0" encoding="utf-8"?>
<svg version="1.1" xmlns:xlink="http://www.w3.org/1999/xlink" width="7px" height="12px" xmlns="http://www.w3.org/2000/svg">
  <g transform="matrix(1 0 0 1 -38 -62 )">
    <path d="M 6.7 8.88888888888889  C 6.82727272727273 8.88888888888889  6.91515151515152 8.93287037037037  6.96363636363636 9.02083333333333  C 7.01212121212121 9.1087962962963  6.9969696969697 9.18981481481481  6.91818181818182 9.26388888888889  L 3.73636363636364 11.9305555555556  C 3.67575757575758 11.9768518518519  3.60606060606061 12  3.52727272727273 12  C 3.44242424242424 12  3.36969696969697 11.9768518518519  3.30909090909091 11.9305555555556  L 0.0818181818181818 9.26388888888889  C 0.00303030303030302 9.18981481481481  -0.0121212121212121 9.1087962962963  0.0363636363636364 9.02083333333333  C 0.0909090909090909 8.93287037037037  0.178787878787879 8.88888888888889  0.3 8.88888888888889  L 2.33636363636364 8.88888888888889  L 2.33636363636364 0.222222222222222  C 2.33636363636364 0.157407407407406  2.36363636363636 0.104166666666667  2.41818181818182 0.0625000000000004  C 2.47272727272727 0.0208333333333339  2.54242424242424 0  2.62727272727273 0  L 4.37272727272727 0  C 4.45757575757576 0  4.52727272727273 0.0208333333333339  4.58181818181818 0.0625000000000004  C 4.63636363636364 0.104166666666667  4.66363636363636 0.157407407407406  4.66363636363636 0.222222222222222  L 4.66363636363636 8.88888888888889  L 6.7 8.88888888888889  Z " fill-rule="nonzero" fill="#ff7c7c" stroke="none" transform="matrix(1 0 0 1 38 62 )" />
  </g>
</svg>