<?xml version="1.0" encoding="utf-8"?>
<svg version="1.1" xmlns:xlink="http://www.w3.org/1999/xlink" width="7px" height="14px" xmlns="http://www.w3.org/2000/svg">
  <g transform="matrix(1 0 0 1 -108 -60 )">
    <path d="M 6.7 10.3703703703704  C 6.82727272727273 10.3703703703704  6.91515151515152 10.4216820987654  6.96363636363636 10.5243055555556  C 7.01212121212121 10.6269290123457  6.9969696969697 10.7214506172839  6.91818181818182 10.8078703703704  L 3.73636363636364 13.9189814814815  C 3.67575757575758 13.9729938271605  3.60606060606061 14  3.52727272727273 14  C 3.44242424242424 14  3.36969696969697 13.9729938271605  3.30909090909091 13.9189814814815  L 0.0818181818181818 10.8078703703704  C 0.00303030303030302 10.7214506172839  -0.0121212121212121 10.6269290123457  0.0363636363636364 10.5243055555556  C 0.0909090909090909 10.4216820987654  0.178787878787879 10.3703703703704  0.3 10.3703703703704  L 2.33636363636364 10.3703703703704  L 2.33636363636364 0.259259259259259  C 2.33636363636364 0.18364197530864  2.36363636363636 0.121527777777778  2.41818181818182 0.0729166666666672  C 2.47272727272727 0.0243055555555562  2.54242424242424 0  2.62727272727273 0  L 4.37272727272727 0  C 4.45757575757576 0  4.52727272727273 0.0243055555555562  4.58181818181818 0.0729166666666672  C 4.63636363636364 0.121527777777778  4.66363636363636 0.18364197530864  4.66363636363636 0.259259259259259  L 4.66363636363636 10.3703703703704  L 6.7 10.3703703703704  Z " fill-rule="nonzero" fill="#ff7c7c" stroke="none" transform="matrix(1 0 0 1 108 60 )" />
  </g>
</svg>