<?xml version="1.0" encoding="utf-8"?>
<svg version="1.1" xmlns:xlink="http://www.w3.org/1999/xlink" width="20px" height="21px" xmlns="http://www.w3.org/2000/svg">
  <g transform="matrix(1 0 0 1 -15 -33 )">
    <path d="M 19.5584239130435 8.41752246469833  C 19.8528079710145 8.75449293966624  20 9.16110397946085  20 9.63735558408216  L 20 11.3626444159178  C 20 11.8388960205392  19.8528079710145 12.2455070603338  19.5584239130435 12.5824775353017  C 19.2640398550725 12.9194480102696  18.8813405797101 13.0879332477535  18.4103260869565 13.0879332477535  L 8.84510869565217 13.0879332477535  L 12.8260869565217 17.0507060333761  C 13.1702898550725 17.3741976893453  13.3423913043478 17.7785622593068  13.3423913043478 18.2637997432606  C 13.3423913043478 18.7490372272144  13.1702898550725 19.1534017971759  12.8260869565217 19.4768934531451  L 11.8070652173913 20.5012836970475  C 11.4719202898551 20.8337612323492  11.0643115942029 21  10.5842391304348 21  C 10.1132246376812 21  9.70108695652174 20.8337612323492  9.34782608695652 20.5012836970475  L 0.502717391304348 11.7130937098845  C 0.167572463768116 11.3806161745828  0 10.9762516046213  0 10.5  C 0 10.0327342747112  0.167572463768116 9.62387676508344  0.502717391304348 9.27342747111682  L 9.34782608695652 0.51219512195122  C 9.69202898550725 0.170731707317072  10.1041666666667 0  10.5842391304348 0  C 11.0552536231884 0  11.4628623188406 0.170731707317072  11.8070652173913 0.51219512195122  L 12.8260869565217 1.50962772785623  C 13.1702898550725 1.85109114249037  13.3423913043478 2.2599486521181  13.3423913043478 2.73620025673941  C 13.3423913043478 3.21245186136072  13.1702898550725 3.62130937098845  12.8260869565217 3.96277278562259  L 8.84510869565217 7.91206675224647  L 18.4103260869565 7.91206675224647  C 18.8813405797101 7.91206675224647  19.2640398550725 8.08055198973042  19.5584239130435 8.41752246469833  Z " fill-rule="nonzero" fill="#ffffff" stroke="none" transform="matrix(1 0 0 1 15 33 )" />
  </g>
</svg>