<?xml version="1.0" encoding="utf-8"?>
<svg version="1.1" xmlns:xlink="http://www.w3.org/1999/xlink" width="12px" height="12px" xmlns="http://www.w3.org/2000/svg">
  <g transform="matrix(1 0 0 1 -70 -449 )">
    <path d="M 6.8046875 8.1953125  C 6.8515625 8.2421875  6.875 8.30208333333333  6.875 8.375  L 6.875 9.625  C 6.875 9.69791666666667  6.8515625 9.7578125  6.8046875 9.8046875  C 6.7578125 9.8515625  6.69791666666667 9.875  6.625 9.875  L 5.375 9.875  C 5.30208333333333 9.875  5.2421875 9.8515625  5.1953125 9.8046875  C 5.1484375 9.7578125  5.125 9.69791666666667  5.125 9.625  L 5.125 8.375  C 5.125 8.30208333333333  5.1484375 8.2421875  5.1953125 8.1953125  C 5.2421875 8.1484375  5.30208333333333 8.125  5.375 8.125  L 6.625 8.125  C 6.69791666666667 8.125  6.7578125 8.1484375  6.8046875 8.1953125  Z M 8.01953125 2.82421875  C 8.58984375 3.29036458333333  8.875 3.84895833333333  8.875 4.5  C 8.875 4.76041666666667  8.8359375 4.99479166666667  8.7578125 5.203125  C 8.6796875 5.41145833333333  8.56119791666667 5.59114583333333  8.40234375 5.7421875  C 8.24348958333333 5.89322916666667  8.10807291666667 6.0078125  7.99609375 6.0859375  C 7.88411458333333 6.1640625  7.72916666666667 6.2578125  7.53125 6.3671875  C 7.36458333333333 6.4609375  7.24348958333333 6.53385416666667  7.16796875 6.5859375  C 7.09244791666667 6.63802083333333  7.02473958333333 6.70052083333333  6.96484375 6.7734375  C 6.90494791666667 6.84635416666667  6.875 6.921875  6.875 7  L 6.875 7.25  C 6.875 7.32291666666667  6.8515625 7.3828125  6.8046875 7.4296875  C 6.7578125 7.4765625  6.69791666666667 7.5  6.625 7.5  L 5.375 7.5  C 5.30208333333333 7.5  5.2421875 7.4765625  5.1953125 7.4296875  C 5.1484375 7.3828125  5.125 7.32291666666667  5.125 7.25  L 5.125 6.71875  C 5.125 6.53645833333333  5.15234375 6.36848958333333  5.20703125 6.21484375  C 5.26171875 6.06119791666667  5.32421875 5.9375  5.39453125 5.84375  C 5.46484375 5.75  5.56640625 5.65755208333333  5.69921875 5.56640625  C 5.83203125 5.47526041666667  5.93880208333333 5.40885416666667  6.01953125 5.3671875  C 6.10026041666667 5.32552083333333  6.21614583333333 5.27083333333333  6.3671875 5.203125  C 6.64322916666667 5.07291666666667  6.83854166666667 4.9609375  6.953125 4.8671875  C 7.06770833333333 4.7734375  7.125 4.64583333333333  7.125 4.484375  C 7.125 4.265625  7.01171875 4.07942708333333  6.78515625 3.92578125  C 6.55859375 3.77213541666667  6.30989583333333 3.6953125  6.0390625 3.6953125  C 5.74739583333333 3.6953125  5.5 3.765625  5.296875 3.90625  C 5.14583333333333 4.01041666666667  4.9375 4.2265625  4.671875 4.5546875  C 4.625 4.6171875  4.55989583333333 4.6484375  4.4765625 4.6484375  C 4.41927083333333 4.6484375  4.36979166666667 4.6328125  4.328125 4.6015625  L 3.484375 3.9609375  C 3.43229166666667 3.92447916666667  3.40104166666667 3.87239583333333  3.390625 3.8046875  C 3.38020833333333 3.73697916666667  3.39322916666667 3.67708333333333  3.4296875 3.625  C 4.06510416666667 2.625  4.97395833333333 2.125  6.15625 2.125  C 6.828125 2.125  7.44921875 2.35807291666667  8.01953125 2.82421875  Z M 7.94140625 1.3984375  C 7.32421875 1.1328125  6.67708333333333 1  6 1  C 5.32291666666667 1  4.67578125 1.1328125  4.05859375 1.3984375  C 3.44140625 1.6640625  2.91015625 2.01953125  2.46484375 2.46484375  C 2.01953125 2.91015625  1.6640625 3.44140625  1.3984375 4.05859375  C 1.1328125 4.67578125  1 5.32291666666667  1 6  C 1 6.67708333333333  1.1328125 7.32421875  1.3984375 7.94140625  C 1.6640625 8.55859375  2.01953125 9.08984375  2.46484375 9.53515625  C 2.91015625 9.98046875  3.44140625 10.3359375  4.05859375 10.6015625  C 4.67578125 10.8671875  5.32291666666667 11  6 11  C 6.67708333333333 11  7.32421875 10.8671875  7.94140625 10.6015625  C 8.55859375 10.3359375  9.08984375 9.98046875  9.53515625 9.53515625  C 9.98046875 9.08984375  10.3359375 8.55859375  10.6015625 7.94140625  C 10.8671875 7.32421875  11 6.67708333333333  11 6  C 11 5.32291666666667  10.8671875 4.67578125  10.6015625 4.05859375  C 10.3359375 3.44140625  9.98046875 2.91015625  9.53515625 2.46484375  C 9.08984375 2.01953125  8.55859375 1.6640625  7.94140625 1.3984375  Z M 11.1953125 2.98828125  C 11.7317708333333 3.90755208333333  12 4.91145833333333  12 6  C 12 7.08854166666667  11.7317708333333 8.09244791666666  11.1953125 9.01171875  C 10.6588541666667 9.93098958333333  9.93098958333333 10.6588541666667  9.01171875 11.1953125  C 8.09244791666667 11.7317708333333  7.08854166666667 12  6 12  C 4.91145833333333 12  3.90755208333333 11.7317708333333  2.98828125 11.1953125  C 2.06901041666667 10.6588541666667  1.34114583333333 9.93098958333333  0.8046875 9.01171875  C 0.268229166666667 8.09244791666666  0 7.08854166666667  0 6  C 0 4.91145833333333  0.268229166666667 3.90755208333333  0.8046875 2.98828125  C 1.34114583333333 2.06901041666667  2.06901041666667 1.34114583333333  2.98828125 0.8046875  C 3.90755208333333 0.268229166666666  4.91145833333333 0  6 0  C 7.08854166666667 0  8.09244791666667 0.268229166666666  9.01171875 0.8046875  C 9.93098958333333 1.34114583333333  10.6588541666667 2.06901041666667  11.1953125 2.98828125  Z " fill-rule="nonzero" fill="#b3b3b3" stroke="none" transform="matrix(1 0 0 1 70 449 )" />
  </g>
</svg>