<?xml version="1.0" encoding="utf-8"?>
<svg version="1.1" xmlns:xlink="http://www.w3.org/1999/xlink" width="17px" height="5px" xmlns="http://www.w3.org/2000/svg">
  <g transform="matrix(1 0 0 1 -330 -503 )">
    <path d="M 4.29829545454546 0.364583333333333  C 4.52367424242424 0.607638888888887  4.63636363636364 0.902777777777777  4.63636363636364 1.25  L 4.63636363636364 3.75  C 4.63636363636364 4.09722222222222  4.52367424242424 4.39236111111111  4.29829545454546 4.63541666666667  C 4.07291666666667 4.87847222222222  3.79924242424242 5  3.47727272727273 5  L 1.15909090909091 5  C 0.837121212121212 5  0.56344696969697 4.87847222222222  0.338068181818182 4.63541666666667  C 0.112689393939394 4.39236111111111  0 4.09722222222222  0 3.75  L 0 1.25  C 0 0.902777777777777  0.112689393939394 0.607638888888887  0.338068181818182 0.364583333333333  C 0.56344696969697 0.121527777777777  0.837121212121212 0  1.15909090909091 0  L 3.47727272727273 0  C 3.79924242424242 0  4.07291666666667 0.121527777777777  4.29829545454546 0.364583333333333  Z M 10.4801136363636 0.364583333333333  C 10.7054924242424 0.607638888888887  10.8181818181818 0.902777777777777  10.8181818181818 1.25  L 10.8181818181818 3.75  C 10.8181818181818 4.09722222222222  10.7054924242424 4.39236111111111  10.4801136363636 4.63541666666667  C 10.2547348484849 4.87847222222222  9.98106060606061 5  9.65909090909091 5  L 7.34090909090909 5  C 7.01893939393939 5  6.74526515151515 4.87847222222222  6.51988636363636 4.63541666666667  C 6.29450757575758 4.39236111111111  6.18181818181818 4.09722222222222  6.18181818181818 3.75  L 6.18181818181818 1.25  C 6.18181818181818 0.902777777777777  6.29450757575758 0.607638888888887  6.51988636363636 0.364583333333333  C 6.74526515151515 0.121527777777777  7.01893939393939 0  7.34090909090909 0  L 9.65909090909091 0  C 9.98106060606061 0  10.2547348484849 0.121527777777777  10.4801136363636 0.364583333333333  Z M 16.6619318181818 0.364583333333333  C 16.8873106060606 0.607638888888887  17 0.902777777777777  17 1.25  L 17 3.75  C 17 4.09722222222222  16.8873106060606 4.39236111111111  16.6619318181818 4.63541666666667  C 16.436553030303 4.87847222222222  16.1628787878788 5  15.8409090909091 5  L 13.5227272727273 5  C 13.2007575757576 5  12.9270833333333 4.87847222222222  12.7017045454545 4.63541666666667  C 12.4763257575758 4.39236111111111  12.3636363636364 4.09722222222222  12.3636363636364 3.75  L 12.3636363636364 1.25  C 12.3636363636364 0.902777777777777  12.4763257575758 0.607638888888887  12.7017045454545 0.364583333333333  C 12.9270833333333 0.121527777777777  13.2007575757576 0  13.5227272727273 0  L 15.8409090909091 0  C 16.1628787878788 0  16.436553030303 0.121527777777777  16.6619318181818 0.364583333333333  Z " fill-rule="nonzero" fill="#aaaaaa" stroke="none" transform="matrix(1 0 0 1 330 503 )" />
  </g>
</svg>