<?xml version="1.0" encoding="utf-8"?>
<svg version="1.1" xmlns:xlink="http://www.w3.org/1999/xlink" width="26px" height="27px" xmlns="http://www.w3.org/2000/svg">
  <g transform="matrix(1 0 0 1 -17 -39 )">
    <path d="M 25.4259510869565 10.8225288831836  C 25.8086503623188 11.2557766367137  26 11.7785622593068  26 12.3908857509628  L 26 14.6091142490372  C 26 15.2214377406932  25.8086503623188 15.7442233632863  25.4259510869565 16.1774711168164  C 25.0432518115942 16.6107188703466  24.5457427536232 16.8273427471117  23.9334239130435 16.8273427471117  L 11.4986413043478 16.8273427471117  L 16.6739130434783 21.9223363286264  C 17.1213768115942 22.3382541720154  17.3451086956522 22.8581514762516  17.3451086956522 23.482028241335  C 17.3451086956522 24.1059050064185  17.1213768115942 24.6258023106547  16.6739130434783 25.0417201540436  L 15.3491847826087 26.3587933247754  C 14.9134963768116 26.7862644415918  14.3836050724638 27  13.7595108695652 27  C 13.1471920289855 27  12.6114130434783 26.7862644415918  12.1521739130435 26.3587933247754  L 0.653532608695652 15.0596919127086  C 0.217844202898551 14.6322207958922  0 14.112323491656  0 13.5  C 0 12.8992297817715  0.217844202898551 12.3735558408216  0.653532608695652 11.9229781771502  L 12.1521739130435 0.658536585365854  C 12.5996376811594 0.219512195121949  13.1354166666667 0  13.7595108695652 0  C 14.3718297101449 0  14.9017210144928 0.219512195121949  15.3491847826087 0.658536585365854  L 16.6739130434783 1.94094993581515  C 17.1213768115942 2.37997432605905  17.3451086956522 2.90564826700898  17.3451086956522 3.51797175866496  C 17.3451086956522 4.13029525032092  17.1213768115942 4.65596919127086  16.6739130434783 5.09499358151476  L 11.4986413043478 10.1726572528883  L 23.9334239130435 10.1726572528883  C 24.5457427536232 10.1726572528883  25.0432518115942 10.3892811296534  25.4259510869565 10.8225288831836  Z " fill-rule="nonzero" fill="#ffffff" stroke="none" transform="matrix(1 0 0 1 17 39 )" />
  </g>
</svg>