<?xml version="1.0" encoding="utf-8"?>
<svg version="1.1" xmlns:xlink="http://www.w3.org/1999/xlink" width="20px" height="16px" xmlns="http://www.w3.org/2000/svg">
  <g transform="matrix(1 0 0 1 -184 -628 )">
    <path d="M 6.08333333333333 3.25  C 6.47222222222222 3.63888888888889  6.66666666666667 4.11111111111111  6.66666666666667 4.66666666666667  C 6.66666666666667 5.22222222222222  6.47222222222222 5.69444444444444  6.08333333333333 6.08333333333333  C 5.69444444444445 6.47222222222222  5.22222222222222 6.66666666666667  4.66666666666667 6.66666666666667  C 4.11111111111111 6.66666666666667  3.63888888888889 6.47222222222222  3.25 6.08333333333333  C 2.86111111111111 5.69444444444444  2.66666666666667 5.22222222222222  2.66666666666667 4.66666666666667  C 2.66666666666667 4.11111111111111  2.86111111111111 3.63888888888889  3.25 3.25  C 3.63888888888889 2.86111111111111  4.11111111111111 2.66666666666667  4.66666666666667 2.66666666666667  C 5.22222222222222 2.66666666666667  5.69444444444445 2.86111111111111  6.08333333333333 3.25  Z M 13 4.33333333333333  L 17.3333333333333 8.66666666666667  L 17.3333333333333 13.3333333333333  L 2.66666666666667 13.3333333333333  L 2.66666666666667 11.3333333333333  L 6 8  L 7.66666666666667 9.66666666666667  L 13 4.33333333333333  Z M 18.5677083333333 1.43229166666667  C 18.5017361111111 1.36631944444444  18.4236111111111 1.33333333333333  18.3333333333333 1.33333333333333  L 1.66666666666667 1.33333333333333  C 1.57638888888889 1.33333333333333  1.49826388888889 1.36631944444444  1.43229166666667 1.43229166666667  C 1.36631944444444 1.49826388888889  1.33333333333333 1.57638888888889  1.33333333333333 1.66666666666667  L 1.33333333333333 14.3333333333333  C 1.33333333333333 14.4236111111111  1.36631944444444 14.5017361111111  1.43229166666667 14.5677083333333  C 1.49826388888889 14.6336805555556  1.57638888888889 14.6666666666667  1.66666666666667 14.6666666666667  L 18.3333333333333 14.6666666666667  C 18.4236111111111 14.6666666666667  18.5017361111111 14.6336805555556  18.5677083333333 14.5677083333333  C 18.6336805555556 14.5017361111111  18.6666666666667 14.4236111111111  18.6666666666667 14.3333333333333  L 18.6666666666667 1.66666666666667  C 18.6666666666667 1.57638888888889  18.6336805555556 1.49826388888889  18.5677083333333 1.43229166666667  Z M 19.5104166666667 0.489583333333334  C 19.8368055555556 0.815972222222221  20 1.20833333333333  20 1.66666666666667  L 20 14.3333333333333  C 20 14.7916666666667  19.8368055555556 15.1840277777778  19.5104166666667 15.5104166666667  C 19.1840277777778 15.8368055555556  18.7916666666667 16  18.3333333333333 16  L 1.66666666666667 16  C 1.20833333333333 16  0.815972222222222 15.8368055555556  0.489583333333333 15.5104166666667  C 0.163194444444444 15.1840277777778  0 14.7916666666667  0 14.3333333333333  L 0 1.66666666666667  C 0 1.20833333333333  0.163194444444444 0.815972222222221  0.489583333333333 0.489583333333334  C 0.815972222222222 0.163194444444443  1.20833333333333 0  1.66666666666667 0  L 18.3333333333333 0  C 18.7916666666667 0  19.1840277777778 0.163194444444443  19.5104166666667 0.489583333333334  Z " fill-rule="nonzero" fill="#a1a1a1" stroke="none" transform="matrix(1 0 0 1 184 628 )" />
  </g>
</svg>