<?xml version="1.0" encoding="utf-8"?>
<svg version="1.1" xmlns:xlink="http://www.w3.org/1999/xlink" width="15px" height="18px" xmlns="http://www.w3.org/2000/svg">
  <g transform="matrix(1 0 0 1 -284 -627 )">
    <path d="M 1.359375 0  L 13.640625 0  C 13.8203125 0  13.9921875 0.035690680766689  14.15625 0.107072042300067  C 14.4140625 0.210178453403831  14.619140625 0.372769332452081  14.771484375 0.594844679444812  C 14.923828125 0.81692002643754  15 1.06278916060806  15 1.33245208195638  L 15 16.6675479180436  C 15 16.9372108393919  14.923828125 17.1830799735625  14.771484375 17.4051553205552  C 14.619140625 17.6272306675479  14.4140625 17.7898215465962  14.15625 17.8929279576999  C 14.0078125 17.9563780568407  13.8359375 17.9881031064111  13.640625 17.9881031064111  C 13.265625 17.9881031064111  12.94140625 17.8612029081295  12.66796875 17.6074025115664  L 7.5 12.5631196298744  L 2.33203125 17.6074025115664  C 2.05078125 17.8691341705221  1.7265625 18  1.359375 18  C 1.1796875 18  1.0078125 17.9643093192333  0.84375 17.8929279576999  C 0.5859375 17.7898215465962  0.380859375 17.6272306675479  0.228515625 17.4051553205552  C 0.076171875 17.1830799735625  0 16.9372108393919  0 16.6675479180436  L 0 1.33245208195638  C 0 1.06278916060806  0.076171875 0.81692002643754  0.228515625 0.594844679444812  C 0.380859375 0.372769332452081  0.5859375 0.210178453403831  0.84375 0.107072042300067  C 1.0078125 0.035690680766689  1.1796875 0  1.359375 0  Z " fill-rule="nonzero" fill="#a2a2a2" stroke="none" transform="matrix(1 0 0 1 284 627 )" />
  </g>
</svg>