<?xml version="1.0" encoding="utf-8"?>
<svg version="1.1" xmlns:xlink="http://www.w3.org/1999/xlink" width="12px" height="11px" xmlns="http://www.w3.org/2000/svg">
  <g transform="matrix(1 0 0 1 -88 -41 )">
    <path d="M 2.04327426106195 3.31296940595238  C 1.98324785840708 3.41257487738095  2.01647361504425 3.54148709880952  2.11742774336283 3.60048922619048  C 2.15149569026549 3.62058987976191  2.1888916460177 3.62999698809524  2.22585292035398 3.62999698809524  C 2.29855294247788 3.62999698809524  2.36917465486726 3.59331998928571  2.40907000884956 3.52733622738095  C 3.01374888053097 2.52301357261905  4.12402705752212 1.89902216428572  5.30661131415929 1.89902216428572  C 5.42417832743363 1.89902216428572  5.51931864159292 1.80517889880952  5.51931864159292 1.68918469761905  C 5.51931864159292 1.57319049642857  5.42417832743363 1.47934723095238  5.30661131415929 1.47934723095238  C 3.97468773451327 1.47934723095238  2.72419850442478 2.18201261666667  2.04327426106195 3.31296940595238  Z M 2.02708247787611 4.46217761785714  C 2.05386957079646 4.349265525  1.98282675663717 4.23656784047619  1.86838399115044 4.21014217380952  C 1.75413140707965 4.18411851785714  1.6396750619469 4.25378739761905  1.61287438938053 4.36669949047619  C 1.54931620353982 4.6345206547619  1.5133737079646 4.80051188571429  1.5133737079646 5.09845723095238  C 1.5133737079646 5.21443802261905  1.6087177699115 5.30829469761905  1.72608103539823 5.30829469761905  C 1.84366162831858 5.30829469761905  1.93880194247788 5.21443802261905  1.93880194247788 5.09845723095238  C 1.93880194247788 4.84559095952381  1.96746357079646 4.71362344880952  2.02708247787611 4.46217761785714  Z M 11.8301747654867 10.809938425  C 11.9963442876106 10.6461716821429  11.9963442876106 10.3803873904762  11.830147579646 10.2164732345238  L 9.66442869026549 8.07993414642857  C 9.65857411061947 8.07414516071429  9.65257011504425 8.06862418214286  9.64648461504425 8.063264  C 10.1967063982301 7.24877195952381  10.5179747389381 6.27155839880952  10.5179747389381 5.22141964404762  C 10.5179747389381 2.38655692261905  8.18024531415929 0.0803682916666663  5.30662492035398 0.0803682916666663  C 2.43318111504425 0.0803682916666663  0.0952615221238941 2.38655692261905  0.0952615221238941 5.22141964404762  C 0.0952615221238941 8.05617516785714  2.43318111504425 10.3623637988095  5.30662492035398 10.3623637988095  C 6.35209521238938 10.3623637988095  7.32588424778761 10.0562173904762  8.14265919026549 9.53120161190476  L 7.52280731415929 8.91972621309524  C 6.8722155 9.30045947023809  6.1161054159292 9.5230139452381  5.30662493362832 9.5230139452381  C 2.90222665486726 9.5230139452381  0.946090831858408 7.59351163214286  0.946090831858408 5.22143304047619  C 0.946090831858408 2.84947505595238  2.90221307522124 0.919731541666668  5.30662493362832 0.919731541666668  C 7.71100963274336 0.919731541666668  9.66715903539823 2.84947505595238  9.66715903539823 5.22143304047619  C 9.66715903539823 6.33936461190476  9.22907078761062 7.3553858452381  8.51803145575221 8.12115388333334  L 9.00366269469026 8.60024635119048  C 9.02027556637168 8.6262163952381  9.0399312079646 8.65080620119048  9.0628605 8.67342614285714  L 11.2286065619469 10.809938425  C 11.311698119469 10.8919089059524  11.4205443982301 10.9329008511905  11.5293906637168 10.9329008511905  C 11.6382369292035 10.9329008511905  11.7473005486726 10.8919089059524  11.8301747654867 10.809938425  Z " fill-rule="nonzero" fill="#b9b9b9" stroke="none" transform="matrix(1 0 0 1 88 41 )" />
  </g>
</svg>