<?xml version="1.0" encoding="utf-8"?>
<svg version="1.1" xmlns:xlink="http://www.w3.org/1999/xlink" width="14px" height="14px" xmlns="http://www.w3.org/2000/svg">
  <g transform="matrix(1 0 0 1 -126 -980 )">
    <path d="M 11.4934895833333 7.99348958333333  C 11.6089409722222 7.87803819444444  11.6666666666667 7.74131944444444  11.6666666666667 7.58333333333333  L 11.6666666666667 6.41666666666667  C 11.6666666666667 6.25868055555555  11.6089409722222 6.12196180555555  11.4934895833333 6.00651041666667  C 11.3780381944444 5.89105902777778  11.2413194444444 5.83333333333333  11.0833333333333 5.83333333333333  L 8.16666666666667 5.83333333333333  L 8.16666666666667 2.91666666666667  C 8.16666666666667 2.75868055555555  8.10894097222222 2.62196180555555  7.99348958333333 2.50651041666667  C 7.87803819444445 2.39105902777778  7.74131944444445 2.33333333333333  7.58333333333333 2.33333333333333  L 6.41666666666667 2.33333333333333  C 6.25868055555556 2.33333333333333  6.12196180555556 2.39105902777778  6.00651041666667 2.50651041666667  C 5.89105902777778 2.62196180555555  5.83333333333333 2.75868055555555  5.83333333333333 2.91666666666667  L 5.83333333333333 5.83333333333333  L 2.91666666666667 5.83333333333333  C 2.75868055555556 5.83333333333333  2.62196180555556 5.89105902777778  2.50651041666667 6.00651041666667  C 2.39105902777778 6.12196180555555  2.33333333333333 6.25868055555555  2.33333333333333 6.41666666666667  L 2.33333333333333 7.58333333333333  C 2.33333333333333 7.74131944444444  2.39105902777778 7.87803819444444  2.50651041666667 7.99348958333333  C 2.62196180555556 8.10894097222222  2.75868055555556 8.16666666666667  2.91666666666667 8.16666666666667  L 5.83333333333333 8.16666666666667  L 5.83333333333333 11.0833333333333  C 5.83333333333333 11.2413194444444  5.89105902777778 11.3780381944444  6.00651041666667 11.4934895833333  C 6.12196180555556 11.6089409722222  6.25868055555556 11.6666666666667  6.41666666666667 11.6666666666667  L 7.58333333333333 11.6666666666667  C 7.74131944444445 11.6666666666667  7.87803819444445 11.6089409722222  7.99348958333333 11.4934895833333  C 8.10894097222222 11.3780381944444  8.16666666666667 11.2413194444444  8.16666666666667 11.0833333333333  L 8.16666666666667 8.16666666666667  L 11.0833333333333 8.16666666666667  C 11.2413194444444 8.16666666666667  11.3780381944444 8.10894097222222  11.4934895833333 7.99348958333333  Z M 13.2298177083333 0.770182291666667  C 13.7432725694444 1.28363715277778  14 1.90190972222222  14 2.625  L 14 11.375  C 14 12.0980902777778  13.7432725694444 12.7163628472222  13.2298177083333 13.2298177083333  C 12.7163628472222 13.7432725694444  12.0980902777778 14  11.375 14  L 2.625 14  C 1.90190972222222 14  1.28363715277778 13.7432725694444  0.770182291666667 13.2298177083333  C 0.256727430555556 12.7163628472222  0 12.0980902777778  0 11.375  L 0 2.625  C 0 1.90190972222222  0.256727430555556 1.28363715277778  0.770182291666667 0.770182291666667  C 1.28363715277778 0.256727430555555  1.90190972222222 0  2.625 0  L 11.375 0  C 12.0980902777778 0  12.7163628472222 0.256727430555555  13.2298177083333 0.770182291666667  Z " fill-rule="nonzero" fill="#f2b694" stroke="none" transform="matrix(1 0 0 1 126 980 )" />
  </g>
</svg>