<?xml version="1.0" encoding="utf-8"?>
<svg version="1.1" xmlns:xlink="http://www.w3.org/1999/xlink" width="12px" height="12px" xmlns="http://www.w3.org/2000/svg">
  <g transform="matrix(1 0 0 1 -229 -238 )">
    <path d="M 9.8515625 6.8515625  C 9.95052083333333 6.75260416666667  10 6.63541666666667  10 6.5  L 10 5.5  C 10 5.36458333333333  9.95052083333333 5.24739583333333  9.8515625 5.1484375  C 9.75260416666667 5.04947916666667  9.63541666666667 5  9.5 5  L 7 5  L 7 2.5  C 7 2.36458333333333  6.95052083333333 2.24739583333333  6.8515625 2.1484375  C 6.75260416666667 2.04947916666667  6.63541666666667 2  6.5 2  L 5.5 2  C 5.36458333333333 2  5.24739583333333 2.04947916666667  5.1484375 2.1484375  C 5.04947916666667 2.24739583333333  5 2.36458333333333  5 2.5  L 5 5  L 2.5 5  C 2.36458333333333 5  2.24739583333333 5.04947916666667  2.1484375 5.1484375  C 2.04947916666667 5.24739583333333  2 5.36458333333333  2 5.5  L 2 6.5  C 2 6.63541666666667  2.04947916666667 6.75260416666667  2.1484375 6.8515625  C 2.24739583333333 6.95052083333333  2.36458333333333 7  2.5 7  L 5 7  L 5 9.5  C 5 9.63541666666667  5.04947916666667 9.75260416666667  5.1484375 9.8515625  C 5.24739583333333 9.95052083333333  5.36458333333333 10  5.5 10  L 6.5 10  C 6.63541666666667 10  6.75260416666667 9.95052083333333  6.8515625 9.8515625  C 6.95052083333333 9.75260416666667  7 9.63541666666667  7 9.5  L 7 7  L 9.5 7  C 9.63541666666667 7  9.75260416666667 6.95052083333333  9.8515625 6.8515625  Z M 11.33984375 0.66015625  C 11.7799479166667 1.10026041666667  12 1.63020833333333  12 2.25  L 12 9.75  C 12 10.3697916666667  11.7799479166667 10.8997395833333  11.33984375 11.33984375  C 10.8997395833333 11.7799479166667  10.3697916666667 12  9.75 12  L 2.25 12  C 1.63020833333333 12  1.10026041666667 11.7799479166667  0.66015625 11.33984375  C 0.220052083333333 10.8997395833333  0 10.3697916666667  0 9.75  L 0 2.25  C 0 1.63020833333333  0.220052083333333 1.10026041666667  0.66015625 0.66015625  C 1.10026041666667 0.220052083333333  1.63020833333333 0  2.25 0  L 9.75 0  C 10.3697916666667 0  10.8997395833333 0.220052083333333  11.33984375 0.66015625  Z " fill-rule="nonzero" fill="#f2b694" stroke="none" transform="matrix(1 0 0 1 229 238 )" />
  </g>
</svg>