<?xml version="1.0" encoding="utf-8"?>
<svg version="1.1" xmlns:xlink="http://www.w3.org/1999/xlink" width="15px" height="14px" xmlns="http://www.w3.org/2000/svg">
  <g transform="matrix(1 0 0 1 -29 -41 )">
    <path d="M 2.55409282632743 4.21650651666667  C 2.47905982300885 4.34327711666667  2.52059201880531 4.50734721666667  2.64678467920354 4.58244083333333  C 2.68936961283186 4.60802348333333  2.73611455752212 4.61999616666667  2.78231615044248 4.61999616666667  C 2.87319117809734 4.61999616666667  2.96146831858407 4.57331635  3.01133751106195 4.48933701666667  C 3.76718610066372 3.21110818333333  5.15503382190265 2.4169373  6.63326414269912 2.4169373  C 6.78022290929204 2.4169373  6.89914830199115 2.29750041666667  6.89914830199115 2.14987143333333  C 6.89914830199115 2.00224245  6.78022290929204 1.88280556666667  6.63326414269912 1.88280556666667  C 4.96835966814159 1.88280556666667  3.40524813053097 2.77710696666667  2.55409282632743 4.21650651666667  Z M 2.53385309734513 5.67913515  C 2.56733696349557 5.53542885  2.47853344579646 5.39199543333333  2.33547998893805 5.35836276666667  C 2.19266425884956 5.32524175  2.04959382743363 5.41391123333333  2.01609298672566 5.55761753333333  C 1.93664525442478 5.89848083333333  1.89171713495575 6.1097424  1.89171713495575 6.48894556666667  C 1.89171713495575 6.63655748333333  2.01089721238938 6.75601143333333  2.15760129424779 6.75601143333333  C 2.30457703539823 6.75601143333333  2.42350242809735 6.63655748333333  2.42350242809735 6.48894556666667  C 2.42350242809735 6.16711576666667  2.45932946349558 5.99915711666667  2.53385309734513 5.67913515  Z M 14.7877184568584 13.75810345  C 14.9954303595133 13.54967305  14.9954303595133 13.2114021333333  14.7876844745575 13.0027841166667  L 12.0805358628319 10.28355255  C 12.0732176382743 10.27618475  12.0657126438053 10.26915805  12.0581057688053 10.262336  C 12.7458829977876 9.22570976666666  13.1474684236726 7.98198341666667  13.1474684236726 6.64544318333333  C 13.1474684236726 3.03743608333333  10.2253066426991 0.102286916666666  6.63328115044248 0.102286916666666  C 3.04147639380531 0.102286916666666  0.119076902654868 3.03743608333333  0.119076902654868 6.64544318333333  C 0.119076902654868 10.25331385  3.04147639380531 13.1884630166667  6.63328115044248 13.1884630166667  C 7.94011901548673 13.1884630166667  9.15735530973451 12.7988221333333  10.1783239878319 12.1306202333333  L 9.40350914269912 11.3523788166667  C 8.590269375 11.8369484166667  7.6451317699115 12.1201995666667  6.6332811670354 12.1201995666667  C 3.62778331858407 12.1201995666667  1.18261353982301 9.66446935  1.18261353982301 6.64546023333333  C 1.18261353982301 3.62660461666667  3.62776634402655 1.17056741666667  6.6332811670354 1.17056741666667  C 9.6387620409292 1.17056741666667  12.0839487942478 3.62660461666667  12.0839487942478 6.64546023333333  C 12.0839487942478 8.06828223333333  11.5363384845133 9.36140016666667  10.6475393196903 10.3360140333333  L 11.2545783683628 10.9457680833333  C 11.2753444579646 10.9788208666667  11.2999140099558 11.0101169833333  11.328575625 11.038906  L 14.0357582024336 13.75810345  C 14.1396226493363 13.8624295166667  14.2756804977876 13.9146010833333  14.411738329646 13.9146010833333  C 14.5477961615044 13.9146010833333  14.6841256858407 13.8624295166667  14.7877184568584 13.75810345  Z " fill-rule="nonzero" fill="#b9b9b9" stroke="none" transform="matrix(1 0 0 1 29 41 )" />
  </g>
</svg>