<?xml version="1.0" encoding="utf-8"?>
<svg version="1.1" xmlns:xlink="http://www.w3.org/1999/xlink" width="46px" height="20px" xmlns="http://www.w3.org/2000/svg">
  <defs>
    <mask fill="white" id="clip58">
      <path d="M 0 15  L 0 5  C 0 2.19999999999999  1.68666666666667 0  3.83333333333333 0  L 15.3333333333333 0  L 32.711111111112 0  L 42.1666666666667 0  C 44.3133333333333 0  46 2.19999999999999  46 5  L 46 15  C 46 17.8  44.3133333333333 20  42.1666666666667 20  L 3.83333333333333 20  C 1.68666666666667 20  0 17.8  0 15  Z " fill-rule="evenodd" />
    </mask>
  </defs>
  <g transform="matrix(1 0 0 1 -78 -212 )">
    <path d="M 0 15  L 0 5  C 0 2.19999999999999  1.68666666666667 0  3.83333333333333 0  L 15.3333333333333 0  L 32.711111111112 0  L 42.1666666666667 0  C 44.3133333333333 0  46 2.19999999999999  46 5  L 46 15  C 46 17.8  44.3133333333333 20  42.1666666666667 20  L 3.83333333333333 20  C 1.68666666666667 20  0 17.8  0 15  Z " fill-rule="nonzero" fill="#ffecce" stroke="none" transform="matrix(1 0 0 1 78 212 )" />
    <path d="M 0 15  L 0 5  C 0 2.19999999999999  1.68666666666667 0  3.83333333333333 0  L 15.3333333333333 0  L 32.711111111112 0  L 42.1666666666667 0  C 44.3133333333333 0  46 2.19999999999999  46 5  L 46 15  C 46 17.8  44.3133333333333 20  42.1666666666667 20  L 3.83333333333333 20  C 1.68666666666667 20  0 17.8  0 15  Z " stroke-width="2" stroke="#f7ac75" fill="none" stroke-opacity="0.674509803921569" transform="matrix(1 0 0 1 78 212 )" mask="url(#clip58)" />
  </g>
</svg>