<?xml version="1.0" encoding="utf-8"?>
<svg version="1.1" xmlns:xlink="http://www.w3.org/1999/xlink" width="12px" height="11px" xmlns="http://www.w3.org/2000/svg">
  <g transform="matrix(1 0 0 1 -83 -216 )">
    <path d="M 8.71875 9.65532451165721  L 8.19951923076923 6.73724007561437  L 10.40625 4.67863894139886  L 7.36298076923077 4.24889729048519  L 6 1.60113421550094  L 4.63701923076923 4.24889729048519  L 1.59375 4.67863894139886  L 3.80048076923077 6.73724007561437  L 3.27403846153846 9.65532451165721  L 6 8.27599243856333  L 8.71875 9.65532451165721  Z M 11.5961538461538 3.94391934467549  C 11.8653846153846 3.98550724637681  12 4.09178743961353  12 4.26275992438563  C 12 4.36441923965553  11.9375 4.47532031085906  11.8125 4.59546313799622  L 9.19471153846154 7.04914933837429  L 9.81490384615385 10.5148078134846  C 9.81971153846154 10.5471539592523  9.82211538461539 10.5933627389204  9.82211538461539 10.653434152489  C 9.82211538461539 10.8844780508297  9.72355769230769 11  9.52644230769231 11  C 9.43509615384616 11  9.33894230769231 10.9722747321991  9.23798076923077 10.9168241965974  L 6 9.28103339634531  L 2.76201923076923 10.9168241965974  C 2.65625 10.9722747321991  2.56009615384615 11  2.47355769230769 11  C 2.37259615384615 11  2.296875 10.9664986347406  2.24639423076923 10.8994959042218  C 2.19591346153846 10.832493173703  2.17067307692308 10.7504725897921  2.17067307692308 10.653434152489  C 2.17067307692308 10.6257088846881  2.17548076923077 10.57950010502  2.18509615384615 10.5148078134846  L 2.80528846153846 7.04914933837429  L 0.180288461538462 4.59546313799622  C 0.0600961538461538 4.47069943289225  0 4.35979836168872  0 4.26275992438563  C 0 4.09178743961353  0.134615384615385 3.98550724637681  0.403846153846154 3.94391934467549  L 4.02403846153846 3.43793320730939  L 5.64663461538462 0.284183994959042  C 5.73798076923077 0.0947279983196802  5.85576923076923 0  6 0  C 6.14423076923077 0  6.26201923076923 0.0947279983196802  6.35336538461539 0.284183994959042  L 7.97596153846154 3.43793320730939  L 11.5961538461538 3.94391934467549  Z " fill-rule="nonzero" fill="#f59a23" stroke="none" transform="matrix(1 0 0 1 83 216 )" />
  </g>
</svg>