<?xml version="1.0" encoding="utf-8"?>
<svg version="1.1" xmlns:xlink="http://www.w3.org/1999/xlink" width="33px" height="26px" xmlns="http://www.w3.org/2000/svg">
  <g transform="matrix(1 0 0 1 -332 -626 )">
    <path d="M 15.390134529148 19.5  L 16.4260089686099 19.5  L 18.5717488789238 17.3579545454545  L 15.7600896860987 14.5511363636364  L 13.6143497757848 16.6931818181818  L 13.6143497757848 17.7272727272727  L 15.390134529148 17.7272727272727  L 15.390134529148 19.5  Z M 24.5465246636771 6.81392045454546  C 24.7561659192825 6.60464015151515  24.762331838565 6.40151515151515  24.5650224215247 6.20454545454546  C 24.3677130044843 6.00757575757576  24.1642376681614 6.01373106060606  23.9545964125561 6.22301136363636  L 17.4803811659193 12.6860795454545  C 17.2707399103139 12.8953598484848  17.2645739910314 13.0984848484848  17.4618834080717 13.2954545454545  C 17.6591928251121 13.4924242424242  17.862668161435 13.4862689393939  18.0723094170404 13.2769886363636  L 24.5465246636771 6.81392045454546  Z M 25.6748878923767 16.6377840909091  C 25.9215246636771 16.7362689393939  26.0448430493274 16.9147727272727  26.0448430493274 17.1732954545455  L 26.0448430493274 20.6818181818182  C 26.0448430493274 22.1467803030303  25.5238228699552 23.399384469697  24.4817825112108 24.4396306818182  C 23.4397421524664 25.4798768939394  22.1849775784753 26  20.7174887892377 26  L 5.32735426008969 26  C 3.85986547085202 26  2.60510089686099 25.4798768939394  1.56306053811659 24.4396306818182  C 0.521020179372197 23.399384469697  0 22.1467803030303  0 20.6818181818182  L 0 5.31818181818182  C 0 3.85321969696969  0.521020179372197 2.60061553030303  1.56306053811659 1.56036931818182  C 2.60510089686099 0.520123106060604  3.85986547085202 0  5.32735426008969 0  L 20.7174887892377 0  C 21.4943946188341 0  22.2158071748879 0.153882575757574  22.8817264573991 0.461647727272726  C 23.0667040358744 0.547821969696968  23.1776905829596 0.689393939393939  23.2146860986547 0.886363636363636  C 23.2516816143498 1.09564393939394  23.1961883408072 1.27414772727273  23.0482062780269 1.421875  L 22.1418161434978 2.32670454545455  C 21.9691704035874 2.49905303030303  21.7718609865471 2.54829545454546  21.5498878923767 2.47443181818182  C 21.2662556053812 2.40056818181818  20.9887892376682 2.36363636363636  20.7174887892377 2.36363636363636  L 5.32735426008969 2.36363636363636  C 4.51345291479821 2.36363636363636  3.81670403587444 2.6529356060606  3.23710762331839 3.23153409090909  C 2.65751121076233 3.81013257575757  2.36771300448431 4.50568181818182  3 5.31818181818182  L 3 20.6818181818182  C 2.36771300448431 21.4943181818182  2.65751121076233 22.1898674242424  3.23710762331839 22.7684659090909  C 3.81670403587444 23.3470643939394  4.51345291479821 23.6363636363636  5.32735426008969 23.6363636363636  L 20.7174887892377 23.6363636363636  C 21.5313901345291 23.6363636363636  22.2281390134529 23.3470643939394  22.807735426009 22.7684659090909  C 23.387331838565 22.1898674242424  23.677130044843 21.4943181818182  23.677130044843 20.6818181818182  L 23.677130044843 18.3551136363636  C 23.677130044843 18.1950757575758  23.7326233183857 18.0596590909091  23.8436098654709 17.9488636363636  L 25.027466367713 16.7670454545455  C 25.2124439461883 16.5823863636364  25.4282511210762 16.5392992424242  25.6748878923767 16.6377840909091  Z M 11.8385650224215 15.9545454545455  L 24.2690582959641 3.54545454545455  L 29.5964125560538 8.86363636363637  L 17.1659192825112 21.2727272727273  L 11.8385650224215 21.2727272727273  L 11.8385650224215 15.9545454545455  Z M 33 4.72727272727273  C 33 5.21969696969697  32.8273542600897 5.63825757575757  32.4820627802691 5.98295454545455  L 30.780269058296 7.68181818181818  L 25.4529147982063 2.36363636363636  L 27.1547085201794 0.664772727272726  C 27.5 0.320075757575755  27.9192825112108 0.147727272727274  28.4125560538117 0.147727272727274  C 28.9058295964126 0.147727272727274  29.3251121076233 0.320075757575755  29.6704035874439 0.664772727272726  L 32.4820627802691 3.47159090909091  C 32.8273542600897 3.81628787878787  33 4.23484848484848  33 4.72727272727273  Z " fill-rule="nonzero" fill="#ffffff" stroke="none" transform="matrix(1 0 0 1 332 626 )" />
  </g>
</svg>