<?xml version="1.0" encoding="utf-8"?>
<svg version="1.1" xmlns:xlink="http://www.w3.org/1999/xlink" width="18px" height="13px" xmlns="http://www.w3.org/2000/svg">
  <g transform="matrix(1 0 0 1 -179 -479 )">
    <path d="M 17.6082589285714 0.37578125  C 17.8694196428571 0.490885416666666  18 0.690625  18 0.974999999999999  L 18 12.025  C 18 12.309375  17.8694196428571 12.5091145833333  17.6082589285714 12.62421875  C 17.5212053571429 12.6580729166667  17.4375 12.675  17.3571428571429 12.675  C 17.1763392857143 12.675  17.0256696428571 12.6106770833333  16.9051339285714 12.48203125  L 12.8571428571429 8.3890625  L 12.8571428571429 10.075  C 12.8571428571429 10.8807291666667  12.57421875 11.5696614583333  12.0083705357143 12.141796875  C 11.4425223214286 12.7139322916667  10.7611607142857 13  9.96428571428572 13  L 2.89285714285714 13  C 2.09598214285714 13  1.41462053571429 12.7139322916667  0.848772321428571 12.141796875  C 0.282924107142857 11.5696614583333  0 10.8807291666667  0 10.075  L 0 2.925  C 0 2.11927083333333  0.282924107142857 1.43033854166667  0.848772321428571 0.858203125  C 1.41462053571429 0.286067708333332  2.09598214285714 0  2.89285714285714 0  L 9.96428571428572 0  C 10.7611607142857 0  11.4425223214286 0.286067708333332  12.0083705357143 0.858203125  C 12.57421875 1.43033854166667  12.8571428571429 2.11927083333333  12.8571428571429 2.925  L 12.8571428571429 4.60078125  L 16.9051339285714 0.517968749999999  C 17.0256696428571 0.389322916666666  17.1763392857143 0.325  17.3571428571429 0.325  C 17.4375 0.325  17.5212053571429 0.341927083333331  17.6082589285714 0.37578125  Z " fill-rule="nonzero" fill="#ffffff" stroke="none" transform="matrix(1 0 0 1 179 479 )" />
  </g>
</svg>