<?xml version="1.0" encoding="utf-8"?>
<svg version="1.1" xmlns:xlink="http://www.w3.org/1999/xlink" width="15px" height="18px" xmlns="http://www.w3.org/2000/svg">
  <g transform="matrix(1 0 0 1 -80 -476 )">
    <path d="M 10.3515625 0.683035714285715  L 14.3359375 4.78125  C 14.4270833333333 4.875  14.5182291666667 4.99553571428571  14.609375 5.14285714285714  L 10 5.14285714285714  L 10 0.401785714285715  C 10.1432291666667 0.495535714285714  10.2604166666667 0.589285714285712  10.3515625 0.683035714285715  Z M 9.0234375 6.14732142857143  C 9.20572916666667 6.33482142857143  9.42708333333333 6.42857142857143  9.6875 6.42857142857143  L 15 6.42857142857143  L 15 17.0357142857143  C 15 17.3035714285714  14.9088541666667 17.53125  14.7265625 17.71875  C 14.5442708333333 17.90625  14.3229166666667 18  14.0625 18  L 0.9375 18  C 0.677083333333333 18  0.455729166666667 17.90625  0.2734375 17.71875  C 0.0911458333333333 17.53125  0 17.3035714285714  0 17.0357142857143  L 0 0.964285714285715  C 0 0.696428571428571  0.0911458333333333 0.468749999999999  0.2734375 0.28125  C 0.455729166666667 0.0937500000000007  0.677083333333333 0  0.9375 0  L 8.75 0  L 8.75 5.46428571428572  C 8.75 5.73214285714286  8.84114583333333 5.95982142857143  9.0234375 6.14732142857143  Z M 11.162109375 14.0524553571429  C 11.220703125 13.9921875  11.25 13.9151785714286  11.25 13.8214285714286  L 11.25 13.1785714285714  C 11.25 13.0848214285714  11.220703125 13.0078125  11.162109375 12.9475446428571  C 11.103515625 12.8872767857143  11.0286458333333 12.8571428571429  10.9375 12.8571428571429  L 4.0625 12.8571428571429  C 3.97135416666667 12.8571428571429  3.896484375 12.8872767857143  3.837890625 12.9475446428571  C 3.779296875 13.0078125  3.75 13.0848214285714  3.75 13.1785714285714  L 3.75 13.8214285714286  C 3.75 13.9151785714286  3.779296875 13.9921875  3.837890625 14.0524553571429  C 3.896484375 14.1127232142857  3.97135416666667 14.1428571428571  4.0625 14.1428571428571  L 10.9375 14.1428571428571  C 11.0286458333333 14.1428571428571  11.103515625 14.1127232142857  11.162109375 14.0524553571429  Z M 11.162109375 11.4810267857143  C 11.220703125 11.4207589285714  11.25 11.34375  11.25 11.25  L 11.25 10.6071428571429  C 11.25 10.5133928571429  11.220703125 10.4363839285714  11.162109375 10.3761160714286  C 11.103515625 10.3158482142857  11.0286458333333 10.2857142857143  10.9375 10.2857142857143  L 4.0625 10.2857142857143  C 3.97135416666667 10.2857142857143  3.896484375 10.3158482142857  3.837890625 10.3761160714286  C 3.779296875 10.4363839285714  3.75 10.5133928571429  3.75 10.6071428571429  L 3.75 11.25  C 3.75 11.34375  3.779296875 11.4207589285714  3.837890625 11.4810267857143  C 3.896484375 11.5412946428571  3.97135416666667 11.5714285714286  4.0625 11.5714285714286  L 10.9375 11.5714285714286  C 11.0286458333333 11.5714285714286  11.103515625 11.5412946428571  11.162109375 11.4810267857143  Z M 11.162109375 8.90959821428572  C 11.220703125 8.84933035714286  11.25 8.77232142857143  11.25 8.67857142857143  L 11.25 8.03571428571428  C 11.25 7.94196428571428  11.220703125 7.86495535714286  11.162109375 7.8046875  C 11.103515625 7.74441964285714  11.0286458333333 7.71428571428572  10.9375 7.71428571428572  L 4.0625 7.71428571428572  C 3.97135416666667 7.71428571428572  3.896484375 7.74441964285714  3.837890625 7.8046875  C 3.779296875 7.86495535714286  3.75 7.94196428571428  3.75 8.03571428571428  L 3.75 8.67857142857143  C 3.75 8.77232142857143  3.779296875 8.84933035714286  3.837890625 8.90959821428572  C 3.896484375 8.96986607142857  3.97135416666667 9  4.0625 9  L 10.9375 9  C 11.0286458333333 9  11.103515625 8.96986607142857  11.162109375 8.90959821428572  Z " fill-rule="nonzero" fill="#ffffff" stroke="none" transform="matrix(1 0 0 1 80 476 )" />
  </g>
</svg>