<?xml version="1.0" encoding="utf-8"?>
<svg version="1.1" xmlns:xlink="http://www.w3.org/1999/xlink" width="17px" height="18px" xmlns="http://www.w3.org/2000/svg">
  <g transform="matrix(1 0 0 1 -278 -476 )">
    <path d="M 16.6901041666667 0.302884615384616  C 16.8967013888889 0.504807692307691  17 0.749999999999999  17 1.03846153846154  L 17 13.1538461538462  C 17 13.5144230769231  16.8745659722222 13.8353365384615  16.6236979166667 14.1165865384615  C 16.3728298611111 14.3978365384615  16.0555555555556 14.6159855769231  15.671875 14.7710336538462  C 15.2881944444444 14.9260817307692  14.9063585069444 15.0414663461538  14.5263671875 15.1171875  C 14.1463758680556 15.1929086538462  13.7903645833333 15.2307692307692  13.4583333333333 15.2307692307692  C 13.1263020833333 15.2307692307692  12.7702907986111 15.1929086538462  12.3902994791667 15.1171875  C 12.0103081597222 15.0414663461538  11.6284722222222 14.9260817307692  11.2447916666667 14.7710336538462  C 10.8611111111111 14.6159855769231  10.5438368055556 14.3978365384615  10.29296875 14.1165865384615  C 10.0421006944444 13.8353365384615  9.91666666666667 13.5144230769231  9.91666666666667 13.1538461538462  C 9.91666666666667 12.7932692307692  10.0421006944444 12.4723557692308  10.29296875 12.1911057692308  C 10.5438368055556 11.9098557692308  10.8611111111111 11.6917067307692  11.2447916666667 11.5366586538462  C 11.6284722222222 11.3816105769231  12.0103081597222 11.2662259615385  12.3902994791667 11.1905048076923  C 12.7702907986111 11.1147836538462  13.1263020833333 11.0769230769231  13.4583333333333 11.0769230769231  C 14.2330729166667 11.0769230769231  14.94140625 11.2175480769231  15.5833333333333 11.4987980769231  L 15.5833333333333 5.68990384615385  L 7.08333333333333 8.25360576923077  L 7.08333333333333 15.9230769230769  C 7.08333333333333 16.2836538461538  6.95789930555556 16.6045673076923  6.70703125 16.8858173076923  C 6.45616319444444 17.1670673076923  6.13888888888889 17.3852163461538  5.75520833333333 17.5402644230769  C 5.37152777777778 17.6953125  4.98969184027778 17.8106971153846  4.60970052083333 17.8864182692308  C 4.22970920138889 17.9621394230769  3.87369791666667 18  3.54166666666667 18  C 3.20963541666667 18  2.85362413194444 17.9621394230769  2.4736328125 17.8864182692308  C 2.09364149305556 17.8106971153846  1.71180555555556 17.6953125  1.328125 17.5402644230769  C 0.944444444444445 17.3852163461538  0.627170138888889 17.1670673076923  0.376302083333333 16.8858173076923  C 0.125434027777778 16.6045673076923  0 16.2836538461538  0 15.9230769230769  C 0 15.5625  0.125434027777778 15.2415865384615  0.376302083333333 14.9603365384615  C 0.627170138888889 14.6790865384615  0.944444444444445 14.4609375  1.328125 14.3058894230769  C 1.71180555555556 14.1508413461538  2.09364149305556 14.0354567307692  2.4736328125 13.9597355769231  C 2.85362413194444 13.8840144230769  3.20963541666667 13.8461538461538  3.54166666666667 13.8461538461538  C 4.31640625 13.8461538461538  5.02473958333333 13.9867788461538  6 14.2680288461538  L 6 3.80769230769231  C 5.66666666666667 3.58413461538461  5.73676215277778 3.38040865384615  5.876953125 3.19651442307692  C 6.01714409722222 3.01262019230769  6.19791666666667 2.88461538461538  6.41927083333333 2.8125  L 15.6276041666667 0.0432692307692306  C 15.7161458333333 0.0144230769230769  15.8194444444444 0  15.9375 0  C 16.2326388888889 0  16.4835069444444 0.100961538461538  16.6901041666667 0.302884615384616  Z " fill-rule="nonzero" fill="#ffffff" stroke="none" transform="matrix(1 0 0 1 278 476 )" />
  </g>
</svg>