<?xml version="1.0" encoding="utf-8"?>
<svg version="1.1" xmlns:xlink="http://www.w3.org/1999/xlink" width="15px" height="15px" xmlns="http://www.w3.org/2000/svg">
  <g transform="matrix(1 0 0 1 -110 -1057 )">
    <path d="M 6.25 11.62109375  C 6.41927083333333 11.62109375  6.56575520833333 11.5592447916667  6.689453125 11.435546875  L 12.685546875 5.439453125  C 12.8092447916667 5.31575520833333  12.87109375 5.16927083333333  12.87109375 5  C 12.87109375 4.83072916666667  12.8092447916667 4.68424479166667  12.685546875 4.560546875  L 11.689453125 3.564453125  C 11.5657552083333 3.44075520833333  11.4192708333333 3.37890625  11.25 3.37890625  C 11.0807291666667 3.37890625  10.9342447916667 3.44075520833333  10.810546875 3.564453125  L 6.25 8.125  L 4.189453125 6.064453125  C 4.06575520833333 5.94075520833333  3.91927083333333 5.87890625  3.75 5.87890625  C 3.58072916666667 5.87890625  3.43424479166667 5.94075520833333  3.310546875 6.064453125  L 2.314453125 7.060546875  C 2.19075520833333 7.18424479166667  2.12890625 7.33072916666667  2.12890625 7.5  C 2.12890625 7.66927083333333  2.19075520833333 7.81575520833333  2.314453125 7.939453125  L 5.810546875 11.435546875  C 5.93424479166667 11.5592447916667  6.08072916666667 11.62109375  6.25 11.62109375  Z M 14.1748046875 0.825195312500001  C 14.7249348958333 1.37532552083333  15 2.03776041666666  15 2.8125  L 15 12.1875  C 15 12.9622395833333  14.7249348958333 13.6246744791667  14.1748046875 14.1748046875  C 13.6246744791667 14.7249348958333  12.9622395833333 15  12.1875 15  L 2.8125 15  C 2.03776041666667 15  1.37532552083333 14.7249348958333  0.8251953125 14.1748046875  C 0.275065104166667 13.6246744791667  0 12.9622395833333  0 12.1875  L 0 2.8125  C 0 2.03776041666666  0.275065104166667 1.37532552083333  0.8251953125 0.825195312500001  C 1.37532552083333 0.275065104166666  2.03776041666667 0  2.8125 0  L 12.1875 0  C 12.9622395833333 0  13.6246744791667 0.275065104166666  14.1748046875 0.825195312500001  Z " fill-rule="nonzero" fill="#f2b694" stroke="none" transform="matrix(1 0 0 1 110 1057 )" />
  </g>
</svg>