<?xml version="1.0" encoding="utf-8"?>
<svg version="1.1" xmlns:xlink="http://www.w3.org/1999/xlink" width="17px" height="17px" xmlns="http://www.w3.org/2000/svg">
  <g transform="matrix(1 0 0 1 -330 -234 )">
    <path d="M 16.6619318181818 6.51988636363636  C 16.8873106060606 6.74526515151515  17 7.01893939393939  17 7.34090909090909  L 17 9.65909090909091  C 17 9.98106060606061  16.8873106060606 10.2547348484848  16.6619318181818 10.4801136363636  C 16.436553030303 10.7054924242424  16.1628787878788 10.8181818181818  15.8409090909091 10.8181818181818  L 10.8181818181818 10.8181818181818  L 10.8181818181818 15.8409090909091  C 10.8181818181818 16.1628787878788  10.7054924242424 16.436553030303  10.4801136363636 16.6619318181818  C 10.2547348484849 16.8873106060606  9.98106060606061 17  9.65909090909091 17  L 7.34090909090909 17  C 7.01893939393939 17  6.74526515151515 16.8873106060606  6.51988636363636 16.6619318181818  C 6.29450757575758 16.436553030303  6.18181818181818 16.1628787878788  6.18181818181818 15.8409090909091  L 6.18181818181818 10.8181818181818  L 1.15909090909091 10.8181818181818  C 0.837121212121212 10.8181818181818  0.56344696969697 10.7054924242424  0.338068181818182 10.4801136363636  C 0.112689393939394 10.2547348484848  0 9.98106060606061  0 9.65909090909091  L 0 7.34090909090909  C 0 7.01893939393939  0.112689393939394 6.74526515151515  0.338068181818182 6.51988636363636  C 0.56344696969697 6.29450757575758  0.837121212121212 6.18181818181818  1.15909090909091 6.18181818181818  L 6.18181818181818 6.18181818181818  L 6.18181818181818 1.15909090909091  C 6.18181818181818 0.837121212121211  6.29450757575758 0.563446969696969  6.51988636363636 0.338068181818182  C 6.74526515151515 0.112689393939393  7.01893939393939 0  7.34090909090909 0  L 9.65909090909091 0  C 9.98106060606061 0  10.2547348484849 0.112689393939393  10.4801136363636 0.338068181818182  C 10.7054924242424 0.563446969696969  10.8181818181818 0.837121212121211  10.8181818181818 1.15909090909091  L 10.8181818181818 6.18181818181818  L 15.8409090909091 6.18181818181818  C 16.1628787878788 6.18181818181818  16.436553030303 6.29450757575758  16.6619318181818 6.51988636363636  Z " fill-rule="nonzero" fill="#ffffff" stroke="none" transform="matrix(1 0 0 1 330 234 )" />
  </g>
</svg>