<?xml version="1.0" encoding="utf-8"?>
<svg version="1.1" xmlns:xlink="http://www.w3.org/1999/xlink" width="206px" height="66px" xmlns="http://www.w3.org/2000/svg">
  <g transform="matrix(1 0 0 1 -82 -35 )">
    <path d="M 83 45  A 9 9 0 0 1 92 36 L 278 36  A 9 9 0 0 1 287 45 L 287 91  A 9 9 0 0 1 278 100 L 92 100  A 9 9 0 0 1 83 91 L 83 45  Z " fill-rule="nonzero" fill="#ffffff" stroke="none" />
    <path d="M 82.5 45  A 9.5 9.5 0 0 1 92 35.5 L 278 35.5  A 9.5 9.5 0 0 1 287.5 45 L 287.5 91  A 9.5 9.5 0 0 1 278 100.5 L 92 100.5  A 9.5 9.5 0 0 1 82.5 91 L 82.5 45  Z " stroke-width="1" stroke="#ffcc9e" fill="none" stroke-opacity="0.870588235294118" />
  </g>
</svg>